# xmcd
#
# Track frame offsets: 
#        150
#        14328
#        28127
#        50844
#        64686
#        81194
#        92785
#        112499
#        130326
#        151550
#        170561
#        182487
#
# Disc length: 2625 seconds
#
# Revision: 0
# Processed by: cddbd v1.5.2PL0 Copyright (c) Steve Scherf et al.
# Submitted via: ExactAudioCopy v1.0b4
#
DISCID=a00a3f0c
DTITLE=Ivan Marcio and Roger Gutierrez - Blues From The Basement
DYEAR=2016
DGENRE=Blues
TTITLE0=Temperature
TTITLE1=All Of Me
TTITLE2=Blow Wind Blow
TTITLE3=Caldonia
TTITLE4=Evil
TTITLE5=I'm Walkin'
TTITLE6=Just Your Fool
TTITLE7=LOnesome Train
TTITLE8=Monkey On A Limb
TTITLE9=Sittin' On Top Of The World
TTITLE10=Streamline Woman
TTITLE11=Too Late
EXTD=
EXTT0=
EXTT1=
EXTT2=
EXTT3=
EXTT4=
EXTT5=
EXTT6=
EXTT7=
EXTT8=
EXTT9=
EXTT10=
EXTT11=
PLAYORDER=
